<?xml version="1.0" encoding="utf-8"?>
<!-- Generator: Adobe Illustrator 27.0.0, SVG Export Plug-In . SVG Version: 6.00 Build 0)  -->
<svg version="1.1" id="Layer_1" xmlns="http://www.w3.org/2000/svg" xmlns:xlink="http://www.w3.org/1999/xlink" x="0px" y="0px"
	 viewBox="0 0 71.2 7.2" style="enable-background:new 0 0 71.2 7.2;" xml:space="preserve">
<style type="text/css">
	.st0{fill:#4D4D4D;}
</style>
<g>
	<path class="st0" d="M30.9,3.7c-1.1-0.2-2.2-0.3-3.3-0.4c-0.6-0.1-1.1-0.1-1.7-0.1l-1.7-0.1c-1.1,0-2.2,0-3.3,0
		c-1.1,0-2.2,0.1-3.3,0.1l-6.7,0.2C8.7,3.5,6.5,3.6,4.2,3.7v0.1C6.5,3.9,8.7,4,10.9,4.1l6.7,0.2c1.1,0,2.2,0.1,3.3,0.1
		c1.1,0,2.2,0,3.3,0l1.7-0.1c0.6,0,1.1-0.1,1.7-0.1c1.1-0.1,2.2-0.2,3.3-0.4V3.7z"/>
	<path class="st0" d="M4.3,2.2L4.3,2.2c0,0-2.8,1.4-3.4,1.6c0.6,0.2,3.3,1.6,3.3,1.6l0,0L3.7,3.7L4.3,2.2z"/>
	<path class="st0" d="M32.6,2.8c-0.2-0.2-0.4-0.4-0.6-0.5c-0.4-0.2-0.8-0.3-1.2-0.2c0.4,0.3,0.7,0.5,1,0.8C31.9,3,32,3.2,32.1,3.3
		c0.1,0.2,0.2,0.3,0.2,0.4c0,0.1,0,0.3-0.1,0.4c-0.1,0.2-0.2,0.3-0.4,0.4c-0.3,0.3-0.6,0.5-1,0.8c0.4,0,0.8,0,1.2-0.3
		c0.2-0.1,0.4-0.3,0.6-0.5c0.1-0.1,0.2-0.2,0.2-0.4c0-0.1,0.1-0.2,0.1-0.3c0,0,0-0.1,0-0.2c0-0.1,0,0,0-0.1c0-0.2,0-0.4-0.1-0.5
		C32.7,3,32.6,2.9,32.6,2.8z"/>
	<path class="st0" d="M33.2,1.4c0.1,0.4,0.2,0.8,0.2,1.2c0,0.4,0.1,0.8,0.1,1.1c0,0.4,0,0.8-0.1,1.1c0,0.4-0.1,0.8-0.2,1.2
		c0.3-0.2,0.5-0.6,0.7-1c0.1-0.4,0.2-0.9,0.2-1.3c0-0.4-0.1-0.9-0.2-1.3C33.7,2,33.5,1.6,33.2,1.4z"/>
	<path class="st0" d="M66.9,3.7c-2.2-0.1-4.4-0.2-6.7-0.3l-6.7-0.2c-1.1,0-2.2-0.1-3.3-0.1c-1.1,0-2.2,0-3.3,0l-1.7,0.1
		c-0.6,0-1.1,0.1-1.7,0.1c-1.1,0.1-2.2,0.2-3.3,0.4v0.1c1.1,0.2,2.2,0.3,3.3,0.4c0.6,0.1,1.1,0.1,1.7,0.1l1.7,0.1c1.1,0,2.2,0,3.3,0
		c1.1,0,2.2-0.1,3.3-0.1l6.7-0.2c2.2-0.1,4.4-0.2,6.7-0.3V3.7z"/>
	<path class="st0" d="M66.9,2.1L66.9,2.1l0.6,1.6l-0.6,1.6l0,0c0,0,2.8-1.4,3.3-1.6C69.6,3.6,66.9,2.1,66.9,2.1z"/>
	<path class="st0" d="M39,4.2c-0.1-0.2-0.1-0.3-0.1-0.4c0-0.1,0.1-0.3,0.2-0.4c0.1-0.2,0.2-0.3,0.4-0.4c0.3-0.3,0.6-0.5,1-0.8
		c-0.4,0-0.8,0-1.2,0.2c-0.2,0.1-0.4,0.3-0.6,0.5c-0.1,0.1-0.2,0.2-0.2,0.4c-0.1,0.2-0.1,0.3-0.1,0.5c0,0.1,0,0.1,0,0.1
		c0,0.1,0,0.1,0,0.2c0,0.1,0,0.2,0.1,0.3c0.1,0.2,0.1,0.3,0.2,0.4c0.2,0.2,0.4,0.4,0.6,0.5c0.4,0.2,0.8,0.3,1.2,0.3
		c-0.4-0.3-0.7-0.5-1-0.8C39.2,4.5,39.1,4.3,39,4.2z"/>
	<path class="st0" d="M37.9,1.4c-0.3,0.2-0.5,0.6-0.7,1c-0.1,0.4-0.2,0.9-0.2,1.3c0,0.4,0.1,0.9,0.2,1.3c0.1,0.4,0.4,0.8,0.7,1
		c-0.1-0.4-0.2-0.8-0.2-1.2c0-0.4-0.1-0.8-0.1-1.1c0-0.4,0-0.8,0.1-1.1C37.8,2.2,37.8,1.8,37.9,1.4z"/>
	<path class="st0" d="M35.6,2.7C35.6,2.7,35.6,2.7,35.6,2.7c-0.1,0-0.1,0-0.1,0c-0.4,0-0.8,0.5-0.8,1c0,0.6,0.4,1,0.8,1
		c0,0,0,0,0.1,0c0,0,0,0,0.1,0c0.4,0,0.8-0.5,0.8-1C36.4,3.2,36.1,2.7,35.6,2.7z"/>
</g>
</svg>
